<svg xmlns:xlink="http://www.w3.org/1999/xlink" xmlns="http://www.w3.org/2000/svg" aria-hidden="true" class="D_qR M_lj D_Se M_FU" height="16" viewBox="0 0 24 24" width="16"><defs><g id="cds_icon_browse_24"><path clip-rule="evenodd" d="M3 0h5a3 3 0 0 1 3 3v5a3 3 0 0 1-3 3H3a3 3 0 0 1-3-3V3a3 3 0 0 1 3-3Zm0 2a1 1 0 0 0-1 1v5c0 .6.4 1 1 1h5c.6 0 1-.4 1-1V3c0-.6-.4-1-1-1H3Z" fill-rule="evenodd"></path><path clip-rule="evenodd" d="M21 11h-5a3 3 0 0 1-3-3V3a3 3 0 0 1 3-3h5a3 3 0 0 1 3 3v5a3 3 0 0 1-3 3Zm0-2c.6 0 1-.4 1-1V3c0-.6-.4-1-1-1h-5a1 1 0 0 0-1 1v5c0 .6.4 1 1 1h5Z" fill-rule="evenodd"></path><path clip-rule="evenodd" d="M8 13H3a3 3 0 0 0-3 3v5a3 3 0 0 0 3 3h5a3 3 0 0 0 3-3v-5a3 3 0 0 0-3-3Zm-6 3c0-.6.4-1 1-1h5c.6 0 1 .4 1 1v5c0 .6-.4 1-1 1H3a1 1 0 0 1-1-1v-5Z" fill-rule="evenodd"></path><path clip-rule="evenodd" d="M21 24h-5a3 3 0 0 1-3-3v-5a3 3 0 0 1 3-3h5a3 3 0 0 1 3 3v5a3 3 0 0 1-3 3Zm0-2c.6 0 1-.4 1-1v-5c0-.6-.4-1-1-1h-5a1 1 0 0 0-1 1v5c0 .6.4 1 1 1h5Z" fill-rule="evenodd"></path></g></defs><use fill="#414244" href="#cds_icon_browse_24"></use></svg>