<svg xmlns:xlink="http://www.w3.org/1999/xlink" xmlns="http://www.w3.org/2000/svg" aria-hidden="true" class="D_qR D_Iv " height="16" viewBox="0 0 24 24" width="16"><defs><g id="cds_icon_like_24"><path clip-rule="evenodd" d="M24 8a7 7 0 0 0-12-4.9A7 7 0 0 0 0 8c0 3.9 2 7.5 5.4 10.7C7.8 21 11 23 12 23s4.2-2 6.6-4.3C21.9 15.5 24 12 24 8ZM12.8 5.3A5 5 0 0 1 17 3a5 5 0 0 1 5 5c0 3.2-1.8 6.4-4.8 9.3-2 2-4.9 3.7-5.2 3.7-.3 0-3.1-1.8-5.2-3.7-3-2.9-4.8-6-4.8-9.3a5 5 0 0 1 5-5 5 5 0 0 1 4.2 2.3 1 1 0 0 0 1.6 0Z" fill-rule="evenodd"></path></g></defs><use href="#cds_icon_like_24" fill="#57585A"></use></svg>